<svg width="68" height="34" viewBox="0 0 68 34" fill="none" xmlns="http://www.w3.org/2000/svg">
<path d="M5.184 12.92V32.816C5.184 33.024 5.096 33.176 4.92 33.272C4.744 33.384 4.488 33.44 4.152 33.44C3.8 33.44 3.536 33.384 3.36 33.272C3.2 33.176 3.12 33.024 3.12 32.816V12.92H1.08C0.888 12.92 0.736 12.84 0.624 12.68C0.512 12.52 0.456 12.28 0.456 11.96C0.456 11.32 0.656 11 1.056 11H3.12V4.496C3.12 3.536 3.304 2.76 3.672 2.168C4.04 1.576 4.504 1.144 5.064 0.871999C5.64 0.599998 6.24 0.463998 6.864 0.463998C7.648 0.463998 8.312 0.607998 8.856 0.895998C9.4 1.184 9.848 1.512 10.2 1.88C10.376 2.056 10.44 2.24 10.392 2.432C10.344 2.608 10.232 2.792 10.056 2.984C9.864 3.192 9.672 3.312 9.48 3.344C9.304 3.376 9.112 3.328 8.904 3.2C8.552 2.944 8.24 2.744 7.968 2.6C7.696 2.456 7.352 2.384 6.936 2.384C6.44 2.384 6.024 2.536 5.688 2.84C5.352 3.144 5.184 3.744 5.184 4.64V11H8.28C8.664 11 8.856 11.32 8.856 11.96C8.856 12.6 8.664 12.92 8.28 12.92H5.184ZM12.0531 23.36C11.7171 23.36 11.4611 23.304 11.2851 23.192C11.1251 23.096 11.0451 22.944 11.0451 22.736V11.264C11.0451 11.056 11.1251 10.904 11.2851 10.808C11.4611 10.696 11.7171 10.64 12.0531 10.64C12.4051 10.64 12.6691 10.696 12.8451 10.808C13.0211 10.904 13.1091 11.056 13.1091 11.264V12.8C13.3491 12.448 13.6131 12.136 13.9011 11.864C14.1891 11.576 14.4931 11.336 14.8131 11.144C15.1331 10.952 15.4611 10.808 15.7971 10.712C16.1491 10.6 16.5011 10.544 16.8531 10.544C17.2211 10.544 17.5731 10.592 17.9091 10.688C18.2611 10.784 18.5251 10.896 18.7011 11.024C18.8771 11.152 18.9891 11.296 19.0371 11.456C19.0851 11.616 19.0211 11.856 18.8451 12.176C18.7331 12.416 18.5891 12.576 18.4131 12.656C18.2371 12.736 18.0211 12.744 17.7651 12.68C17.5891 12.632 17.3971 12.584 17.1891 12.536C16.9971 12.488 16.7651 12.464 16.4931 12.464C16.1731 12.464 15.8531 12.52 15.5331 12.632C15.2291 12.728 14.9251 12.888 14.6211 13.112C14.3331 13.32 14.0611 13.592 13.8051 13.928C13.5491 14.264 13.3171 14.656 13.1091 15.104V22.736C13.1091 22.944 13.0211 23.096 12.8451 23.192C12.6691 23.304 12.4051 23.36 12.0531 23.36ZM24.1086 23.408C23.2766 23.408 22.6686 23.192 22.2846 22.76C21.9166 22.328 21.7326 21.72 21.7326 20.936V11.264C21.7326 11.056 21.8126 10.904 21.9726 10.808C22.1486 10.696 22.4046 10.64 22.7406 10.64C23.0926 10.64 23.3566 10.696 23.5326 10.808C23.7086 10.904 23.7966 11.056 23.7966 11.264V20.696C23.7966 21.016 23.8686 21.248 24.0126 21.392C24.1566 21.536 24.3326 21.608 24.5406 21.608C24.7166 21.608 24.8606 21.584 24.9726 21.536C25.1006 21.472 25.2126 21.4 25.3086 21.32C25.4206 21.24 25.5406 21.152 25.6686 21.056C25.7646 20.976 25.8926 20.968 26.0526 21.032C26.2286 21.096 26.3646 21.192 26.4606 21.32C26.5886 21.464 26.6606 21.616 26.6766 21.776C26.6926 21.936 26.6526 22.08 26.5566 22.208C26.3806 22.464 26.1566 22.68 25.8846 22.856C25.6286 23.032 25.3406 23.168 25.0206 23.264C24.7166 23.36 24.4126 23.408 24.1086 23.408ZM22.7886 6.944C22.3406 6.944 21.9966 6.824 21.7566 6.584C21.5326 6.328 21.4206 5.952 21.4206 5.456C21.4206 4.944 21.5326 4.56 21.7566 4.304C21.9966 4.048 22.3406 3.92 22.7886 3.92C23.2206 3.92 23.5486 4.048 23.7726 4.304C23.9966 4.56 24.1086 4.944 24.1086 5.456C24.1246 5.952 24.0126 6.328 23.7726 6.584C23.5486 6.824 23.2206 6.944 22.7886 6.944ZM32.9576 23.408C32.0456 23.408 31.2376 23.192 30.5336 22.76C29.8296 22.312 29.2776 21.64 28.8776 20.744C28.4776 19.848 28.2776 18.72 28.2776 17.36C28.2776 16.528 28.3576 15.76 28.5176 15.056C28.6776 14.352 28.9016 13.72 29.1896 13.16C29.4936 12.6 29.8616 12.128 30.2936 11.744C30.7416 11.36 31.2536 11.064 31.8296 10.856C32.4056 10.648 33.0376 10.544 33.7256 10.544C34.2056 10.544 34.7176 10.616 35.2616 10.76C35.8056 10.904 36.3176 11.112 36.7976 11.384V1.184C36.7976 0.975999 36.8856 0.823999 37.0616 0.727999C37.2376 0.615999 37.4936 0.559999 37.8296 0.559999C38.1816 0.559999 38.4376 0.615999 38.5976 0.727999C38.7736 0.823999 38.8616 0.975999 38.8616 1.184V20.696C38.8616 21.016 38.9256 21.248 39.0536 21.392C39.1976 21.536 39.3816 21.608 39.6056 21.608C39.7496 21.608 39.8776 21.584 39.9896 21.536C40.1176 21.488 40.2376 21.424 40.3496 21.344C40.4616 21.264 40.5816 21.176 40.7096 21.08C40.8376 20.984 40.9736 20.968 41.1176 21.032C41.2776 21.096 41.4136 21.192 41.5256 21.32C41.6536 21.464 41.7256 21.616 41.7416 21.776C41.7736 21.936 41.7416 22.08 41.6456 22.208C41.4696 22.464 41.2456 22.68 40.9736 22.856C40.7016 23.032 40.4056 23.168 40.0856 23.264C39.7816 23.36 39.4696 23.408 39.1496 23.408C38.5416 23.408 38.0696 23.296 37.7336 23.072C37.3976 22.848 37.1576 22.576 37.0136 22.256C36.8856 21.92 36.8216 21.584 36.8216 21.248C36.8216 21.232 36.8216 21.224 36.8216 21.224C36.8216 21.208 36.8216 21.192 36.8216 21.176C36.4376 21.784 36.0216 22.248 35.5736 22.568C35.1416 22.888 34.7016 23.104 34.2536 23.216C33.8056 23.344 33.3736 23.408 32.9576 23.408ZM30.3896 17.264C30.3896 18.144 30.4936 18.904 30.7016 19.544C30.9096 20.168 31.2216 20.648 31.6376 20.984C32.0696 21.32 32.6056 21.488 33.2456 21.488C33.7096 21.488 34.1496 21.408 34.5656 21.248C34.9976 21.088 35.3976 20.824 35.7656 20.456C36.1496 20.088 36.4936 19.608 36.7976 19.016V13.304C36.3016 12.984 35.8136 12.76 35.3336 12.632C34.8536 12.504 34.3576 12.44 33.8456 12.44C33.4296 12.44 33.0456 12.504 32.6936 12.632C32.3416 12.76 32.0216 12.952 31.7336 13.208C31.4456 13.464 31.1976 13.784 30.9896 14.168C30.7976 14.552 30.6456 15 30.5336 15.512C30.4376 16.024 30.3896 16.608 30.3896 17.264ZM48.6994 33.536C47.6274 33.536 46.7074 33.328 45.9394 32.912C45.1714 32.496 44.5794 32 44.1634 31.424C44.0194 31.2 43.9554 30.976 43.9714 30.752C44.0034 30.528 44.1794 30.296 44.4994 30.056C44.8034 29.832 45.0354 29.736 45.1954 29.768C45.3714 29.8 45.5634 29.92 45.7714 30.128C46.2674 30.656 46.7474 31.04 47.2114 31.28C47.6754 31.536 48.2034 31.664 48.7954 31.664C49.4354 31.664 49.9874 31.528 50.4514 31.256C50.9154 31 51.2674 30.576 51.5074 29.984C51.7634 29.392 51.8914 28.6 51.8914 27.608V21.2C51.5234 21.792 51.1154 22.248 50.6674 22.568C50.2354 22.888 49.7954 23.104 49.3474 23.216C48.9154 23.344 48.4834 23.408 48.0514 23.408C47.1394 23.408 46.3314 23.192 45.6274 22.76C44.9234 22.312 44.3714 21.64 43.9714 20.744C43.5714 19.848 43.3714 18.72 43.3714 17.36C43.3714 16.528 43.4434 15.76 43.5874 15.056C43.7474 14.352 43.9794 13.72 44.2834 13.16C44.5874 12.6 44.9554 12.128 45.3874 11.744C45.8194 11.36 46.3154 11.064 46.8754 10.856C47.4354 10.648 48.0514 10.544 48.7234 10.544C49.2354 10.544 49.7634 10.616 50.3074 10.76C50.8674 10.904 51.3954 11.112 51.8914 11.384V11.264C51.8914 11.056 51.9714 10.904 52.1314 10.808C52.2914 10.696 52.5474 10.64 52.8994 10.64C53.2514 10.64 53.5154 10.696 53.6914 10.808C53.8674 10.904 53.9554 11.056 53.9554 11.264V27.68C53.9554 28.992 53.7394 30.08 53.3074 30.944C52.8754 31.824 52.2674 32.472 51.4834 32.888C50.6994 33.32 49.7714 33.536 48.6994 33.536ZM48.3394 21.488C48.8034 21.488 49.2434 21.408 49.6594 21.248C50.0914 21.072 50.4914 20.8 50.8594 20.432C51.2434 20.064 51.5874 19.584 51.8914 18.992V13.328C51.3954 13.008 50.9074 12.784 50.4274 12.656C49.9474 12.512 49.4514 12.44 48.9394 12.44C48.5234 12.44 48.1394 12.504 47.7874 12.632C47.4354 12.76 47.1154 12.952 46.8274 13.208C46.5394 13.464 46.2914 13.784 46.0834 14.168C45.8914 14.552 45.7394 15 45.6274 15.512C45.5314 16.024 45.4834 16.608 45.4834 17.264C45.4834 18.144 45.5874 18.904 45.7954 19.544C46.0034 20.168 46.3154 20.648 46.7314 20.984C47.1634 21.32 47.6994 21.488 48.3394 21.488ZM67.5791 11.84L59.9951 32.816C59.9311 33.024 59.8191 33.176 59.6591 33.272C59.4991 33.384 59.2991 33.44 59.0591 33.44C58.6111 33.44 58.2911 33.328 58.0991 33.104C57.9231 32.88 57.9071 32.592 58.0511 32.24L61.3871 23.168L56.8751 11.84C56.7631 11.52 56.7951 11.24 56.9711 11C57.1471 10.76 57.4591 10.64 57.9071 10.64C58.1471 10.64 58.3471 10.688 58.5071 10.784C58.6671 10.88 58.7871 11.04 58.8671 11.264L62.3951 20.528L65.5871 11.264C65.6671 11.04 65.7871 10.88 65.9471 10.784C66.1071 10.688 66.3071 10.64 66.5471 10.64C67.0111 10.64 67.3311 10.752 67.5071 10.976C67.6831 11.2 67.7071 11.488 67.5791 11.84Z" fill="white"/>
</svg>
